<svg xmlns="http://www.w3.org/2000/svg" data-name="Layer 1" viewBox="0 0 61.94 63.76" id="netflix"><defs><radialGradient id="a" cx="31.29" cy="-21.02" r="63.62" gradientUnits="userSpaceOnUse"><stop offset="0" stop-color="#fc0000"></stop><stop offset=".62" stop-color="#d40000"></stop><stop offset="1" stop-color="#c10000"></stop></radialGradient><linearGradient id="b" x1="30.97" x2="30.97" y1="49.36" y2="12.57" gradientUnits="userSpaceOnUse"><stop offset="0" stop-color="#fad3e4"></stop><stop offset=".16" stop-color="#fce5ef"></stop><stop offset=".37" stop-color="#fef4f8"></stop><stop offset=".62" stop-color="#fffcfd"></stop><stop offset="1" stop-color="#fff"></stop></linearGradient></defs><rect width="61.94" height="61.94" fill="url(#a)" rx="16.96"></rect><path fill="url(#b)" d="M34.8,12.63h5.53V47.18l-4.55.48c-.37.05-.76.06-1.13.13s-.69-.09-.85-.55q-2.09-6-4.21-12c-.77-2.2-1.55-4.4-2.47-6.6v.58c0,6.2,0,12.4,0,18.6,0,.62-.09.9-.81.95-1.35.1-2.69.34-4,.52-.21,0-.43,0-.67,0V12.63c.23,0,.44,0,.65,0,1.48,0,3,0,4.44,0a.77.77,0,0,1,.89.62Q31,23,34.48,32.78a1.18,1.18,0,0,0,.32.51Z"></path></svg>