<svg xmlns="http://www.w3.org/2000/svg" enable-background="new 0 0 32 32" viewBox="0 0 32 32" id="qr"><g><path fill="none" stroke="#000" stroke-linecap="round" stroke-linejoin="round" stroke-miterlimit="10" stroke-width="2" d="M20.8311 26.16h4.468c1.3325 0 2.4123-1.3968 2.4123-3.1065v-2.0618M20.8311 4.3696h4.468c1.3325 0 2.4123 1.3856 2.4123 3.0954v2.073M4.7115 9.538V7.465c0-1.7097 1.0799-3.0954 2.4123-3.0954h4.4593M4.7115 20.9916v2.0618c0 1.7097 1.0799 3.1065 2.4123 3.1065h4.4593"></path><path fill="none" stroke="#000" stroke-linecap="round" stroke-linejoin="round" stroke-miterlimit="10" stroke-width="2" d="M20.8311 26.16h4.468c1.3325 0 2.4123-1.3968 2.4123-3.1065v-2.0618M20.8311 4.3696h4.468c1.3325 0 2.4123 1.3856 2.4123 3.0954v2.073M4.7115 9.538V7.465c0-1.7097 1.0799-3.0954 2.4123-3.0954h4.4593M4.7115 20.9916v2.0618c0 1.7097 1.0799 3.1065 2.4123 3.1065h4.4593"></path><g><path fill="none" stroke="#000" stroke-linecap="round" stroke-linejoin="round" stroke-miterlimit="10" stroke-width="2" d="M18.8015 21.3734h2.5051c.7471 0 1.3525-.7831 1.3525-1.7417v-1.156M18.8015 9.1563h2.5051c.7471 0 1.3525.7769 1.3525 1.7355v1.1623M9.7638 12.054v-1.1623c0-.9586.6055-1.7355 1.3525-1.7355h2.5002M9.7638 18.4756v1.156c0 .9586.6055 1.7417 1.3525 1.7417h2.5002"></path><path fill="none" stroke="#000" stroke-linecap="round" stroke-linejoin="round" stroke-miterlimit="10" stroke-width="2" d="M18.8015 21.3734h2.5051c.7471 0 1.3525-.7831 1.3525-1.7417v-1.156M18.8015 9.1563h2.5051c.7471 0 1.3525.7769 1.3525 1.7355v1.1623M9.7638 12.054v-1.1623c0-.9586.6055-1.7355 1.3525-1.7355h2.5002M9.7638 18.4756v1.156c0 .9586.6055 1.7417 1.3525 1.7417h2.5002"></path></g><line x1="4.712" x2="27.712" y1="15.265" y2="15.265" fill="none" stroke="#000" stroke-linecap="round" stroke-linejoin="round" stroke-miterlimit="10" stroke-width="2"></line></g></svg>